<svg width="194" height="48" viewBox="0 0 194 48" fill="none" xmlns="http://www.w3.org/2000/svg">
<path d="M66.2 27.4295V23.617H74.74V32.706C74.0487 33.8243 72.9405 34.719 71.4155 35.39C69.9108 36.0407 68.2435 36.366 66.4135 36.366C64.2378 36.366 62.3062 35.8882 60.6185 34.9325C58.9308 33.9565 57.6193 32.5942 56.684 30.8455C55.7487 29.0765 55.281 27.0635 55.281 24.8065C55.281 22.5088 55.7588 20.4958 56.7145 18.7675C57.6905 17.0188 59.0122 15.6667 60.6795 14.711C62.3672 13.7553 64.248 13.2775 66.322 13.2775C67.7047 13.2775 68.9653 13.491 70.104 13.918C71.263 14.3247 72.239 14.9042 73.032 15.6565C73.825 16.4088 74.3943 17.2628 74.74 18.2185L71.08 20.323C70.6327 19.3877 69.9922 18.6557 69.1585 18.127C68.3248 17.578 67.3387 17.3035 66.2 17.3035C65.0003 17.3035 63.9227 17.6085 62.967 18.2185C62.0113 18.8285 61.259 19.7028 60.71 20.8415C60.161 21.9598 59.8865 23.2815 59.8865 24.8065C59.8865 26.3315 60.161 27.6735 60.71 28.8325C61.2793 29.9712 62.0723 30.8455 63.089 31.4555C64.126 32.0655 65.3257 32.3705 66.688 32.3705C67.4607 32.3705 68.1622 32.2688 68.7925 32.0655C69.4228 31.8418 69.9617 31.5063 70.409 31.059V27.4295H66.2ZM82.7822 13.674V32.035H92.9387V36H78.3597V13.674H82.7822ZM118.134 13.674V36H113.925V21.604L108.252 30.0525H105.934L100.231 21.543V36H96.0521V13.674H99.5596L107.185 25.2335L114.779 13.674H118.134ZM122.249 25.02H133.687V28.558H122.249V25.02ZM151.259 13.674V17.6085H144.488V36H140.035V17.6085H133.264V13.674H151.259ZM170.59 13.674V17.6085H163.819V36H159.366V17.6085H152.595V13.674H170.59ZM188.292 29.534C188.292 31.0793 187.906 32.3603 187.133 33.377C186.361 34.3937 185.344 35.146 184.083 35.634C182.823 36.122 181.481 36.366 180.057 36.366C177.983 36.366 176.113 35.8882 174.445 34.9325C172.798 33.9565 171.69 32.584 171.121 30.815L174.72 28.7715C175.208 29.9305 175.92 30.8252 176.855 31.4555C177.79 32.0655 178.909 32.3705 180.21 32.3705C181.267 32.3705 182.101 32.157 182.711 31.73C183.341 31.303 183.656 30.6828 183.656 29.8695C183.656 29.2188 183.453 28.6902 183.046 28.2835C182.64 27.8565 182.131 27.521 181.521 27.277C180.911 27.0127 180.068 26.7178 178.99 26.3925C177.546 25.9655 176.357 25.5487 175.421 25.142C174.506 24.7353 173.713 24.1152 173.042 23.2815C172.392 22.4275 172.066 21.3193 172.066 19.957C172.066 18.5133 172.443 17.2933 173.195 16.297C173.968 15.2803 174.974 14.528 176.214 14.04C177.475 13.5317 178.827 13.2775 180.271 13.2775C181.572 13.2775 182.762 13.4808 183.839 13.8875C184.917 14.2738 185.822 14.8432 186.554 15.5955C187.286 16.3478 187.784 17.2323 188.048 18.249L184.449 20.2925C184.083 19.3368 183.534 18.5947 182.802 18.066C182.07 17.517 181.155 17.2425 180.057 17.2425C179.061 17.2425 178.248 17.4763 177.617 17.944C177.007 18.3913 176.702 18.9912 176.702 19.7435C176.702 20.3128 176.896 20.7907 177.282 21.177C177.668 21.543 178.156 21.848 178.746 22.092C179.336 22.3157 180.139 22.58 181.155 22.885C182.64 23.312 183.86 23.7492 184.815 24.1965C185.771 24.6235 186.584 25.2742 187.255 26.1485C187.947 27.0025 188.292 28.131 188.292 29.534Z" fill="#161616"/>
<path d="M26.582 39.584C26.5871 40.8926 26.5939 41.7302 26.6006 41.8711C26.6275 42.4012 26.7867 42.9046 27.0938 43.3525C27.478 43.9128 28.0616 44.1363 28.6807 44.2705C29.0935 44.3594 29.5134 44.4085 29.9346 44.4639C30.1073 44.4874 30.2382 44.6345 30.2383 44.8105V44.8223C30.2383 45.0151 30.0825 45.1717 29.8896 45.1719H15.6562C15.4633 45.1719 15.3066 45.0152 15.3066 44.8223C15.3068 44.6495 15.4312 44.5017 15.6006 44.4766C16.1358 44.3927 16.6592 44.3256 17.1709 44.2031C18.015 44.0018 18.6308 43.5001 18.8154 42.6191C18.8171 42.6107 18.8203 42.4124 18.8203 42.0566C19.0368 42.0751 19.2353 42.089 19.4199 42.0957C19.549 42.1007 19.6798 42.1025 19.8105 42.1025C22.2924 42.1025 24.8972 41.2469 26.582 39.584ZM26.5527 25.9873C26.2475 25.9035 25.9284 25.8584 25.6064 25.8584C24.6888 25.8585 23.8735 26.2261 23.3701 26.8652C22.8667 27.5063 22.63 28.3924 22.6484 29.5771C22.6585 30.1728 22.7352 30.7483 22.8291 31.3271C21.9147 30.8759 20.8622 30.6749 20.0049 30.5088C19.8926 30.487 19.7801 30.4652 19.6729 30.4434C19.396 30.388 19.1157 30.3319 18.8389 30.2715C18.8422 27.4105 18.8463 24.4016 18.8496 21.6631C20.2976 21.0138 21.9536 20.6696 23.5811 20.334L23.5801 20.3359C24.2091 20.2051 24.8617 20.0712 25.4824 19.9219C25.8432 19.8346 26.1995 19.7385 26.5469 19.6328C26.5486 21.5692 26.5494 23.7573 26.5527 25.9873Z" fill="url(#paint0_linear_1160_1973)"/>
<path d="M26.582 39.584C26.5871 40.8926 26.5939 41.7302 26.6006 41.8711C26.6275 42.4012 26.7867 42.9046 27.0938 43.3525C27.478 43.9128 28.0616 44.1363 28.6807 44.2705C29.0935 44.3594 29.5134 44.4085 29.9346 44.4639C30.1073 44.4874 30.2382 44.6345 30.2383 44.8105V44.8223C30.2383 45.0151 30.0825 45.1717 29.8896 45.1719H15.6562C15.4633 45.1719 15.3066 45.0152 15.3066 44.8223C15.3068 44.6495 15.4312 44.5017 15.6006 44.4766C16.1358 44.3927 16.6592 44.3256 17.1709 44.2031C18.015 44.0018 18.6308 43.5001 18.8154 42.6191C18.8171 42.6107 18.8203 42.4124 18.8203 42.0566C19.0368 42.0751 19.2353 42.089 19.4199 42.0957C19.549 42.1007 19.6798 42.1025 19.8105 42.1025C22.2924 42.1025 24.8972 41.2469 26.582 39.584ZM26.5527 25.9873C26.2475 25.9035 25.9284 25.8584 25.6064 25.8584C24.6888 25.8585 23.8735 26.2261 23.3701 26.8652C22.8667 27.5063 22.63 28.3924 22.6484 29.5771C22.6585 30.1728 22.7352 30.7483 22.8291 31.3271C21.9147 30.8759 20.8622 30.6749 20.0049 30.5088C19.8926 30.487 19.7801 30.4652 19.6729 30.4434C19.396 30.388 19.1157 30.3319 18.8389 30.2715C18.8422 27.4105 18.8463 24.4016 18.8496 21.6631C20.2976 21.0138 21.9536 20.6696 23.5811 20.334L23.5801 20.3359C24.2091 20.2051 24.8617 20.0712 25.4824 19.9219C25.8432 19.8346 26.1995 19.7385 26.5469 19.6328C26.5486 21.5692 26.5494 23.7573 26.5527 25.9873Z" fill="url(#paint1_linear_1160_1973)"/>
<path d="M35.0068 11.1909C36.9281 11.8973 38.6986 12.9085 40.1064 14.2827C40.4907 14.6032 40.8417 14.9597 41.1572 15.3423C42.1605 16.5554 42.8599 18.0034 43.2207 19.5151V19.5171C43.3935 20.237 43.4795 20.9805 43.4795 21.7222C43.4778 25.0077 41.6639 28.4408 38.2559 29.4829C36.6583 29.9712 34.5621 29.6339 33.8926 27.9575C33.4263 26.793 34.0677 25.6333 35.2188 25.1567C36.3077 24.7055 37.5295 24.7341 38.6318 24.3364C39.6134 23.9806 40.4536 23.2739 40.957 22.3862C41.6181 21.22 41.6954 19.775 41.2256 18.5249C40.7557 17.275 39.7592 16.2314 38.5361 15.6206C38.7961 15.7515 39.0781 16.152 39.2744 16.3735C39.5244 16.6555 39.7575 16.9533 39.9639 17.2671C40.3716 17.8863 40.6719 18.576 40.791 19.3042C41.0057 20.6263 40.6636 22.215 39.5195 23.0708C39.3603 23.1898 39.1856 23.2923 39.0029 23.3745C39.7124 21.9616 39.5598 19.9276 38.4658 18.6021C37.7074 17.6826 36.6735 16.9964 35.6416 16.394C34.9234 15.9745 34.166 15.6134 33.3857 15.313C33.3624 15.303 33.3388 15.295 33.3154 15.2866C33.7701 14.6708 34.1515 14.005 34.4385 13.312C34.7304 12.6074 34.9179 11.8972 35.0068 11.1909ZM28.6963 9.90186C29.4966 9.95555 30.3087 10.046 31.1191 10.1802C31.1175 10.2943 31.1111 10.4104 31.0977 10.5278C30.908 12.2512 29.7448 13.4429 28.4141 14.2534C24.5999 14.0286 20.6445 15.0366 17.5586 17.2046C17.552 17.2062 17.547 17.2078 17.542 17.2095C15.4696 17.9831 12.6845 19.5057 11.1826 22.355C11.1742 22.3717 11.1616 22.3949 11.1465 22.4233C11.1398 22.3026 11.1332 22.1716 11.1299 22.0308C11.0997 20.8629 11.3837 19.6314 11.9492 18.4702C12.263 17.8258 12.6709 17.1866 13.1592 16.5708C14.4814 14.9079 16.1137 13.6624 17.8438 12.3452L18.3477 11.9604C18.5523 11.8028 18.7439 11.6449 18.9268 11.4839C20.4587 10.8094 22.1436 10.3243 23.9658 10.0659C24.1017 10.2522 24.2577 10.4273 24.4355 10.5767C24.9305 10.9911 25.5851 11.2212 26.2764 11.2212V11.2192C27.3067 11.2192 28.2331 10.714 28.6963 9.90186Z" fill="url(#paint2_linear_1160_1973)"/>
<path d="M35.0068 11.1909C36.9281 11.8973 38.6986 12.9085 40.1064 14.2827C40.4907 14.6032 40.8417 14.9597 41.1572 15.3423C42.1605 16.5554 42.8599 18.0034 43.2207 19.5151V19.5171C43.3935 20.237 43.4795 20.9805 43.4795 21.7222C43.4778 25.0077 41.6639 28.4408 38.2559 29.4829C36.6583 29.9712 34.5621 29.6339 33.8926 27.9575C33.4263 26.793 34.0677 25.6333 35.2188 25.1567C36.3077 24.7055 37.5295 24.7341 38.6318 24.3364C39.6134 23.9806 40.4536 23.2739 40.957 22.3862C41.6181 21.22 41.6954 19.775 41.2256 18.5249C40.7557 17.275 39.7592 16.2314 38.5361 15.6206C38.7961 15.7515 39.0781 16.152 39.2744 16.3735C39.5244 16.6555 39.7575 16.9533 39.9639 17.2671C40.3716 17.8863 40.6719 18.576 40.791 19.3042C41.0057 20.6263 40.6636 22.215 39.5195 23.0708C39.3603 23.1898 39.1856 23.2923 39.0029 23.3745C39.7124 21.9616 39.5598 19.9276 38.4658 18.6021C37.7074 17.6826 36.6735 16.9964 35.6416 16.394C34.9234 15.9745 34.166 15.6134 33.3857 15.313C33.3624 15.303 33.3388 15.295 33.3154 15.2866C33.7701 14.6708 34.1515 14.005 34.4385 13.312C34.7304 12.6074 34.9179 11.8972 35.0068 11.1909ZM28.6963 9.90186C29.4966 9.95555 30.3087 10.046 31.1191 10.1802C31.1175 10.2943 31.1111 10.4104 31.0977 10.5278C30.908 12.2512 29.7448 13.4429 28.4141 14.2534C24.5999 14.0286 20.6445 15.0366 17.5586 17.2046C17.552 17.2062 17.547 17.2078 17.542 17.2095C15.4696 17.9831 12.6845 19.5057 11.1826 22.355C11.1742 22.3717 11.1616 22.3949 11.1465 22.4233C11.1398 22.3026 11.1332 22.1716 11.1299 22.0308C11.0997 20.8629 11.3837 19.6314 11.9492 18.4702C12.263 17.8258 12.6709 17.1866 13.1592 16.5708C14.4814 14.9079 16.1137 13.6624 17.8438 12.3452L18.3477 11.9604C18.5523 11.8028 18.7439 11.6449 18.9268 11.4839C20.4587 10.8094 22.1436 10.3243 23.9658 10.0659C24.1017 10.2522 24.2577 10.4273 24.4355 10.5767C24.9305 10.9911 25.5851 11.2212 26.2764 11.2212V11.2192C27.3067 11.2192 28.2331 10.714 28.6963 9.90186Z" fill="url(#paint3_linear_1160_1973)"/>
<path d="M22.2051 24.3701C22.2068 24.4054 22.2068 24.4389 22.2051 24.4742C22.2118 24.4372 22.2118 24.402 22.2051 24.3701Z" fill="black"/>
<path d="M33.9498 8.18684C33.0923 5.77879 30.9729 3.84229 28.2074 3.68119C25.4352 3.51842 24.2136 5.35256 24.3327 5.29718C24.5073 5.21663 24.6851 5.14615 24.8647 5.08574C25.2272 4.96324 25.5997 4.87934 25.9789 4.829C27.4506 4.63602 29.0431 4.88605 30.1741 5.86437C29.2663 5.32235 28.1353 5.16461 27.0898 5.21663C25.9655 5.27201 24.9637 5.88283 24.4133 6.88465C23.8713 7.86968 24.0407 9.25913 24.9201 9.99749C25.8397 10.7694 27.4489 10.5697 28.0413 9.52762C28.3249 9.02923 28.34 8.34122 27.9473 7.92506C27.5547 7.50889 26.729 7.56595 26.5109 8.09454C26.2911 8.62314 27.0563 9.25913 27.4758 8.86981C27.2257 9.58971 26.1501 9.77766 25.5812 9.26752C25.014 8.75906 24.9973 7.80591 25.4386 7.18502C25.8782 6.56245 26.6686 6.25537 27.4305 6.24865C29.9543 6.22684 32.1408 7.9519 31.8472 10.61C31.4696 14.0182 27.9121 15.7197 24.9469 16.4111C22.5724 16.9632 20.1107 17.0538 17.805 17.9163C15.3768 18.8242 13.0829 20.3647 11.8495 22.7073C11.7455 22.9053 10.9333 24.5464 11.1128 24.6807C10.4735 24.2024 10.3929 22.7626 10.3745 22.0495C10.3392 20.6953 10.6765 19.3511 11.2689 18.1379C11.623 17.4112 12.066 16.7316 12.5677 16.099C14.0813 14.1944 15.9759 12.8234 17.8889 11.3584C19.473 10.1452 20.7517 8.52916 20.5218 6.42989C20.3339 4.71321 19.1844 3.17609 17.4325 2.8539C16.0195 2.59379 14.3196 3.28348 13.7625 4.66958C13.2926 5.83752 13.7273 7.25215 14.8247 7.89317C15.2795 8.15831 15.8047 8.3043 16.33 8.30095C16.7579 8.29759 17.5332 8.18012 17.8721 7.82101C17.8319 7.91834 17.7144 8.08447 17.6322 8.19858C17.5399 8.32612 17.4409 8.45197 17.3368 8.56776C16.7528 9.21718 16.0296 9.71389 15.3349 10.2358C14.6015 10.7879 13.8699 11.345 13.1752 11.9441C12.0374 12.9257 11.0004 14.0383 10.116 15.2532C10.0204 15.3841 9.45319 16.4212 9.35419 16.4212C8.14765 18.5054 7.70463 21.093 7.99159 23.4708C8.30706 26.0886 9.53206 28.5873 11.4082 30.4399C8.59234 28.26 7.19617 24.5448 7.38244 20.9889C7.49823 18.7772 8.17617 16.6242 9.20819 14.6726C9.7284 13.6909 10.3375 12.7562 11.0188 11.8769C11.68 11.0228 12.2589 10.0646 13.2104 9.48735L13.2188 9.48231C9.01521 12.0011 6.03998 16.5806 5.73121 21.4722C5.42244 26.3638 7.29015 31.7756 11.5156 34.2609C7.49487 32.3864 5.20094 27.958 4.69416 23.5513C4.22765 26.4511 4.69751 29.6008 6.08361 32.2119C6.08361 32.2119 7.50998 35.6553 11.0776 38.3319C11.5542 38.7296 12.0676 39.0769 12.5593 39.3673C12.8547 39.5435 13.1634 39.7062 13.4806 39.8606L13.5662 39.8522C13.5662 39.8522 15.0144 40.6929 17.3184 40.6829C18.7179 40.5973 20.1442 40.2029 21.2434 39.1978C21.2434 39.1978 20.6863 40.5268 18.7615 41.2954C18.9931 41.3155 19.223 41.3323 19.4495 41.3424C22.8644 41.4732 27.1569 39.7398 27.6184 35.9121C27.7627 34.7123 27.4724 33.5376 26.875 32.4972C26.4085 31.685 25.4738 30.5523 26.0998 29.5924C26.9304 28.3204 29.2629 30.1244 29.2629 30.1244C29.0045 29.0706 28.0765 28.5856 28.0765 28.5856C28.0497 28.5722 28.0111 28.26 27.9993 28.2231C27.9138 27.9462 27.7728 27.6845 27.5865 27.4613C26.7458 26.4662 24.8143 26.2531 23.9669 27.3321C23.487 27.9429 23.3947 28.8138 23.4064 29.5656C23.4165 30.2251 23.5205 30.8829 23.6313 31.5323C23.6414 31.591 23.6531 31.6665 23.6649 31.7521C25.2926 34.0964 23.9938 35.8584 23.9938 35.8584C24.3915 34.7743 24.0844 33.7289 23.6967 32.9704C22.8157 31.7353 20.9145 31.4601 19.5301 31.1849C18.3118 30.9433 17.0633 30.6933 16.0078 30.0388C13.8112 28.6745 13.8783 25.5516 15.2291 23.6118C17.5046 20.3412 21.7669 20.0425 25.3111 19.1883C27.1872 18.7369 29.1035 17.9768 30.6792 16.8491C33.3306 14.9512 35.1094 11.4322 33.9532 8.18851L33.9498 8.18684Z" fill="url(#paint4_linear_1160_1973)"/>
<path d="M33.9498 8.18684C33.0923 5.77879 30.9729 3.84229 28.2074 3.68119C25.4352 3.51842 24.2136 5.35256 24.3327 5.29718C24.5073 5.21663 24.6851 5.14615 24.8647 5.08574C25.2272 4.96324 25.5997 4.87934 25.9789 4.829C27.4506 4.63602 29.0431 4.88605 30.1741 5.86437C29.2663 5.32235 28.1353 5.16461 27.0898 5.21663C25.9655 5.27201 24.9637 5.88283 24.4133 6.88465C23.8713 7.86968 24.0407 9.25913 24.9201 9.99749C25.8397 10.7694 27.4489 10.5697 28.0413 9.52762C28.3249 9.02923 28.34 8.34122 27.9473 7.92506C27.5547 7.50889 26.729 7.56595 26.5109 8.09454C26.2911 8.62314 27.0563 9.25913 27.4758 8.86981C27.2257 9.58971 26.1501 9.77766 25.5812 9.26752C25.014 8.75906 24.9973 7.80591 25.4386 7.18502C25.8782 6.56245 26.6686 6.25537 27.4305 6.24865C29.9543 6.22684 32.1408 7.9519 31.8472 10.61C31.4696 14.0182 27.9121 15.7197 24.9469 16.4111C22.5724 16.9632 20.1107 17.0538 17.805 17.9163C15.3768 18.8242 13.0829 20.3647 11.8495 22.7073C11.7455 22.9053 10.9333 24.5464 11.1128 24.6807C10.4735 24.2024 10.3929 22.7626 10.3745 22.0495C10.3392 20.6953 10.6765 19.3511 11.2689 18.1379C11.623 17.4112 12.066 16.7316 12.5677 16.099C14.0813 14.1944 15.9759 12.8234 17.8889 11.3584C19.473 10.1452 20.7517 8.52916 20.5218 6.42989C20.3339 4.71321 19.1844 3.17609 17.4325 2.8539C16.0195 2.59379 14.3196 3.28348 13.7625 4.66958C13.2926 5.83752 13.7273 7.25215 14.8247 7.89317C15.2795 8.15831 15.8047 8.3043 16.33 8.30095C16.7579 8.29759 17.5332 8.18012 17.8721 7.82101C17.8319 7.91834 17.7144 8.08447 17.6322 8.19858C17.5399 8.32612 17.4409 8.45197 17.3368 8.56776C16.7528 9.21718 16.0296 9.71389 15.3349 10.2358C14.6015 10.7879 13.8699 11.345 13.1752 11.9441C12.0374 12.9257 11.0004 14.0383 10.116 15.2532C10.0204 15.3841 9.45319 16.4212 9.35419 16.4212C8.14765 18.5054 7.70463 21.093 7.99159 23.4708C8.30706 26.0886 9.53206 28.5873 11.4082 30.4399C8.59234 28.26 7.19617 24.5448 7.38244 20.9889C7.49823 18.7772 8.17617 16.6242 9.20819 14.6726C9.7284 13.6909 10.3375 12.7562 11.0188 11.8769C11.68 11.0228 12.2589 10.0646 13.2104 9.48735L13.2188 9.48231C9.01521 12.0011 6.03998 16.5806 5.73121 21.4722C5.42244 26.3638 7.29015 31.7756 11.5156 34.2609C7.49487 32.3864 5.20094 27.958 4.69416 23.5513C4.22765 26.4511 4.69751 29.6008 6.08361 32.2119C6.08361 32.2119 7.50998 35.6553 11.0776 38.3319C11.5542 38.7296 12.0676 39.0769 12.5593 39.3673C12.8547 39.5435 13.1634 39.7062 13.4806 39.8606L13.5662 39.8522C13.5662 39.8522 15.0144 40.6929 17.3184 40.6829C18.7179 40.5973 20.1442 40.2029 21.2434 39.1978C21.2434 39.1978 20.6863 40.5268 18.7615 41.2954C18.9931 41.3155 19.223 41.3323 19.4495 41.3424C22.8644 41.4732 27.1569 39.7398 27.6184 35.9121C27.7627 34.7123 27.4724 33.5376 26.875 32.4972C26.4085 31.685 25.4738 30.5523 26.0998 29.5924C26.9304 28.3204 29.2629 30.1244 29.2629 30.1244C29.0045 29.0706 28.0765 28.5856 28.0765 28.5856C28.0497 28.5722 28.0111 28.26 27.9993 28.2231C27.9138 27.9462 27.7728 27.6845 27.5865 27.4613C26.7458 26.4662 24.8143 26.2531 23.9669 27.3321C23.487 27.9429 23.3947 28.8138 23.4064 29.5656C23.4165 30.2251 23.5205 30.8829 23.6313 31.5323C23.6414 31.591 23.6531 31.6665 23.6649 31.7521C25.2926 34.0964 23.9938 35.8584 23.9938 35.8584C24.3915 34.7743 24.0844 33.7289 23.6967 32.9704C22.8157 31.7353 20.9145 31.4601 19.5301 31.1849C18.3118 30.9433 17.0633 30.6933 16.0078 30.0388C13.8112 28.6745 13.8783 25.5516 15.2291 23.6118C17.5046 20.3412 21.7669 20.0425 25.3111 19.1883C27.1872 18.7369 29.1035 17.9768 30.6792 16.8491C33.3306 14.9512 35.1094 11.4322 33.9532 8.18851L33.9498 8.18684Z" fill="url(#paint5_linear_1160_1973)"/>
<defs>
<linearGradient id="paint0_linear_1160_1973" x1="22.7725" y1="15.7999" x2="22.7725" y2="47.3804" gradientUnits="userSpaceOnUse">
<stop stop-color="#73A6FF"/>
<stop offset="1" stop-color="#4D83FF"/>
</linearGradient>
<linearGradient id="paint1_linear_1160_1973" x1="22.7726" y1="15.0621" x2="22.7726" y2="47.8191" gradientUnits="userSpaceOnUse">
<stop stop-color="#5693FC"/>
<stop offset="0.34" stop-color="#4D83FF"/>
<stop offset="1" stop-color="#364ECF"/>
</linearGradient>
<linearGradient id="paint2_linear_1160_1973" x1="33.3154" y1="20.4383" x2="43.4796" y2="20.4383" gradientUnits="userSpaceOnUse">
<stop stop-color="#73A6FF"/>
<stop offset="1" stop-color="#4D83FF"/>
</linearGradient>
<linearGradient id="paint3_linear_1160_1973" x1="27.3041" y1="6.36078" x2="27.3041" y2="31.7387" gradientUnits="userSpaceOnUse">
<stop stop-color="#5693FC"/>
<stop offset="0.34" stop-color="#4D83FF"/>
<stop offset="1" stop-color="#364ECF"/>
</linearGradient>
<linearGradient id="paint4_linear_1160_1973" x1="34.1193" y1="37.6271" x2="14.5982" y2="13.5584" gradientUnits="userSpaceOnUse">
<stop stop-color="#8BB1F8"/>
<stop offset="1" stop-color="#E5EAF6"/>
</linearGradient>
<linearGradient id="paint5_linear_1160_1973" x1="19.4162" y1="-4.09935" x2="19.4162" y2="45.3451" gradientUnits="userSpaceOnUse">
<stop stop-color="#5693FC"/>
<stop offset="0.34" stop-color="#4D83FF"/>
<stop offset="1" stop-color="#364ECF"/>
</linearGradient>
</defs>
</svg>
